<?xml version="1.0" standalone="no"?>
<!DOCTYPE svg PUBLIC "-//W3C//DTD SVG 20010904//EN"
 "http://www.w3.org/TR/2001/REC-SVG-20010904/DTD/svg10.dtd">
<svg version="1.0" xmlns="http://www.w3.org/2000/svg"
 width="1280.000000pt" height="780.000000pt" viewBox="0 0 1280.000000 780.000000"
 preserveAspectRatio="xMidYMid meet">

<g transform="translate(0.000000,780.000000) scale(0.100000,-0.100000)"
fill="#000000" stroke="none">
<path d="M5550 5074 c-458 -90 -758 -445 -760 -897 -1 -356 197 -657 534 -813
250 -115 517 -109 771 18 96 48 187 112 236 165 192 209 280 463 251 726 -14
122 -70 307 -93 307 -13 0 -69 -97 -89 -154 -18 -49 -19 -64 -9 -133 34 -242
-72 -521 -247 -655 -145 -110 -251 -149 -424 -155 -149 -6 -214 7 -335 67
-192 94 -323 249 -374 442 -31 115 -35 174 -17 277 52 300 247 521 522 591 93
24 238 26 338 5 84 -18 204 -76 273 -132 29 -24 54 -43 56 -43 2 0 18 21 34
48 17 26 43 58 57 71 14 14 26 28 26 31 0 12 -146 109 -217 144 -133 66 -223
88 -373 91 -74 2 -146 1 -160 -1z"/>
<path d="M6850 5071 c-353 -66 -622 -309 -721 -653 -30 -104 -37 -279 -15
-389 21 -107 67 -249 81 -249 14 0 48 52 82 125 27 58 28 66 28 225 0 127 5
180 18 230 87 313 355 520 671 520 202 -1 362 -67 507 -213 135 -135 188 -259
196 -462 6 -138 -7 -206 -61 -320 -70 -147 -187 -270 -319 -335 -116 -57 -190
-73 -327 -72 -171 0 -290 42 -432 149 l-57 43 -39 -52 c-21 -29 -46 -65 -56
-80 l-18 -27 69 -50 c93 -70 202 -125 308 -157 78 -24 108 -27 225 -28 148 0
224 15 363 75 162 69 332 214 415 355 110 185 154 433 117 647 -31 179 -103
314 -238 448 -183 181 -375 266 -622 274 -71 2 -150 0 -175 -4z"/>
<path d="M2755 5036 c-328 -65 -573 -294 -672 -627 -25 -84 -28 -109 -28 -239
0 -130 3 -155 28 -239 77 -258 232 -445 463 -557 294 -143 650 -97 904 117 60
51 62 70 14 132 -44 57 -61 64 -94 38 -90 -73 -161 -117 -225 -142 -393 -153
-819 94 -899 520 -20 105 -20 157 0 262 38 207 181 402 360 491 113 57 171 71
299 71 106 1 130 -3 203 -28 51 -17 117 -51 170 -86 53 -35 91 -55 99 -50 7 4
31 31 53 60 32 43 38 56 30 72 -30 55 -227 164 -351 194 -92 22 -269 28 -354
11z"/>
<path d="M3671 5041 c-16 -10 -24 -113 -11 -147 l9 -22 298 -4 298 -3 56 -28
c73 -36 135 -98 168 -167 33 -71 35 -171 3 -243 -27 -60 -102 -135 -167 -167
-48 -24 -60 -25 -267 -28 l-218 -3 0 263 c0 208 -3 268 -14 283 -20 28 -141
28 -162 0 -23 -30 -16 -1461 6 -1475 8 -5 45 -10 82 -10 56 0 69 3 78 19 6 13
10 149 10 375 l0 356 118 1 c64 0 127 2 139 5 29 5 30 4 253 -406 100 -184
188 -338 194 -342 21 -14 151 -9 172 6 22 17 37 -13 -217 447 -87 157 -161
293 -164 301 -5 12 7 20 45 34 72 26 177 109 226 179 140 200 118 453 -55 626
-76 76 -162 124 -260 145 -75 16 -596 20 -620 5z"/>
<path d="M8395 5001 c-90 -26 -158 -65 -218 -123 -194 -191 -195 -482 -2 -672
106 -104 195 -135 415 -145 140 -6 160 -10 205 -33 110 -57 179 -166 180 -283
0 -85 -26 -144 -91 -210 -70 -69 -132 -88 -289 -89 -128 -1 -132 0 -197 32
-105 52 -163 141 -175 269 -3 38 -10 74 -16 81 -13 16 -139 16 -155 0 -28 -28
-2 -209 43 -298 36 -71 134 -171 203 -208 94 -50 176 -65 327 -59 195 7 296
47 403 161 207 219 159 569 -102 738 -88 56 -140 69 -317 78 -136 6 -163 11
-211 32 -118 54 -184 151 -182 268 1 147 100 261 252 290 91 18 265 9 323 -17
107 -48 176 -144 186 -261 7 -81 18 -92 94 -92 83 0 93 13 86 111 -3 42 -16
102 -28 133 -50 136 -185 257 -330 296 -100 27 -314 27 -404 1z"/>
<path d="M9926 4998 c-11 -18 -243 -568 -391 -928 -23 -55 -63 -151 -190 -455
-144 -345 -139 -327 -106 -345 27 -14 134 -13 152 3 9 6 40 71 69 142 57 140
179 432 210 505 29 67 124 296 230 553 83 199 110 253 110 218 0 -5 24 -67 54
-138 134 -315 216 -517 212 -520 -2 -3 -101 -4 -219 -3 -119 0 -227 -2 -241
-6 -39 -10 -93 -152 -65 -170 8 -5 149 -11 314 -14 l299 -5 117 -278 c63 -153
122 -283 130 -288 19 -12 126 -11 150 1 26 15 24 30 -15 124 -46 108 -260 620
-301 721 -18 44 -92 222 -164 395 -72 173 -143 342 -157 375 -55 134 -51 130
-121 133 -55 3 -63 0 -77 -20z"/>
</g>
</svg>
